{"title":"NCIS.Los.Angeles.S04E10.HDTV.Xvid-MrX","uid":7944051,"size":394207562,"categoryP":"video","categoryS":"tv_shows","magnet":"?xt=urn:btih:2626fa36efee6a0fb4256246329727f55a257b6c&amp;dn=NCIS.Los.Angeles.S04E10.HDTV.Xvid-MrX&amp;tr=udp%3A%2F%2Ftracker.openbittorrent.com%3A80&amp;tr=udp%3A%2F%2Fopen.demonii.com%3A1337&amp;tr=udp%3A%2F%2Ftracker.coppersurfer.tk%3A6969&amp;tr=udp%3A%2F%2Fexodus.desync.com%3A6969","seeders":1,"leechers":2,"uploader":"D.N.M","files":3,"time":1356086088,"description":"   _____       ____  ___\n  /     ______   /  /\n /   /  _  __      /\n/    Y      | /     \n____|__  /__| /___/  \n        /           _/\n\n\nNCIS.Los.Angeles.S04E10.HDTV.Xvid-MrX &lt;a href=&quot;\nhttp://www.cbs.com/shows/ncis_los_angeles/&quot; rel=&quot;nofollow&quot; target=&quot;_NEW&quot;&gt;\nhttp://www.cbs.com/shows/ncis_los_angeles/&lt;/a&gt;\n\n\nGeneral\nComplete name                            : NCIS.Los.Angeles.S04E10.HDTV.Xvid-MrX.avi\nFormat                                   : AVI\nFormat/Info                              : Audio Video Interleave\nFile size                                : 375 MiB\nDuration                                 : 43mn 15s\nOverall bit rate mode                    : Variable\nOverall bit rate                         : 1 212 Kbps\n\nVideo\nID                                       : 0\nFormat                                   : MPEG-4 Visual\nFormat profile                           : Advanced Simple@L5\nFormat settings, BVOP                    : 1\nFormat settings, QPel                    : No\nFormat settings, GMC                     : No warppoints\nFormat settings, Matrix                  : Default (H.263)\nMuxing mode                              : Packed bitstream\nCodec ID                                 : XVID\nCodec ID/Hint                            : XviD\nDuration                                 : 43mn 15s\nBit rate                                 : 1 058 Kbps\nWidth                                    : 640 pixels\nHeight                                   : 352 pixels\nDisplay aspect ratio                     : 16:9\nFrame rate                               : 23.976 fps\nColor space                              : YUV\nChroma subsampling                       : 4:2:0\nBit depth                                : 8 bits\nScan type                                : Progressive\nCompression mode                         : Lossy\nBits/(Pixel*Frame)                       : 0.196\nStream size                              : 327 MiB (87%)\nWriting library                          : XviD 1.2.1 (UTC 2008-12-04)\n\nAudio\nID                                       : 1\nFormat                                   : MPEG Audio\nFormat version                           : Version 1\nFormat profile                           : Layer 3\nCodec ID                                 : 55\nCodec ID/Hint                            : MP3\nDuration                                 : 43mn 15s\nBit rate mode                            : Variable\nBit rate                                 : 141 Kbps\nMinimum bit rate                         : 32.0 Kbps\nChannel(s)                               : 2 channels\nSampling rate                            : 48.0 KHz\nCompression mode                         : Lossy\nStream size                              : 43.8 MiB (12%)\nAlignment                                : Aligned on interleaves\nInterleave, duration                     : 24 ms (0.58 video frame)\nInterleave, preload duration             : 59 ms\nTitle                                    : NCIS.Los.Angeles.S04E10\nWriting library                          : LAME3.99r\nEncoding settings                        : -m s -V 4 -q 0 -lowpass 17.5 --vbr-new -b 32\n","torrent":{"xt":"urn:btih:2626fa36efee6a0fb4256246329727f55a257b6c","amp;dn":"NCIS.Los.Angeles.S04E10.HDTV.Xvid-MrX","amp;tr":["udp%3A%2F%2Ftracker.openbittorrent.com%3A80","udp%3A%2F%2Fopen.demonii.com%3A1337","udp%3A%2F%2Ftracker.coppersurfer.tk%3A6969","udp%3A%2F%2Fexodus.desync.com%3A6969"],"infoHash":"2626fa36efee6a0fb4256246329727f55a257b6c","infoHashBuffer":{"type":"Buffer","data":[38,38,250,54,239,238,106,15,180,37,98,70,50,151,39,245,90,37,123,108]},"announce":[],"urlList":[]}}